<?xml version="1.0" encoding="utf-8"?>
<!-- Generator: Adobe Illustrator 22.0.1, SVG Export Plug-In . SVG Version: 6.00 Build 0)  -->
<svg version="1.1" id="Capa_1" xmlns="http://www.w3.org/2000/svg" xmlns:xlink="http://www.w3.org/1999/xlink" x="0px" y="0px"
	 viewBox="0 0 100 100" style="enable-background:new 0 0 100 100;" xml:space="preserve">
<style type="text/css">
	.st0{fill:none;stroke:#404040;stroke-width:0.2835;stroke-miterlimit:10;stroke-dasharray:2.8346;}
	.st1{fill:#32314B;}
	.st2{fill:#F5AC83;}
	.st3{fill:#F08668;}
</style>
<rect x="3" y="3" class="st0" width="94" height="94"/>
<g>
	<g>
		<path class="st1" d="M76.3,30.4c0,0,6.1,4.1,3.9,15.1s-6.5,12.2-6.5,12.2S67.3,33.2,76.3,30.4z"/>
	</g>
	<g>
		<path class="st1" d="M75,36c0,0,15-7,10.6-19.3S63.2,10,47,10.7c-26,1-34.2,14.5-33.5,28.6c0.7,14.1,0.5,33,6.9,40.1
			s10.8-2.9,14.1-11.7C37.8,58.7,58.2,31.7,75,36z"/>
	</g>
	<g>
		<path class="st2" d="M76.4,48c0,0.5,0,1,0,1.4c-0.3,8.8-1.8,19.4-3.3,28c-1.6,9.2-10.4,15.3-19.6,13.4c-11-2.2-24.6-5.6-30.7-9.7
			c-1.9-1.2-3.1-2.5-3.3-3.9c-0.6-3.2-0.9-7.5-1-12.1C18,51,19.1,33.3,19.1,33.3c13.2-16.4,50.1-10,55.7,2C76,38,76.5,42.6,76.4,48z
			"/>
	</g>
	<g>
		<path class="st1" d="M54.5,55.9c0,1.8-0.8,3.3-1.8,3.3s-1.8-1.5-1.8-3.3s0.8-3.3,1.8-3.3C53.7,52.6,54.5,54.1,54.5,55.9z"/>
	</g>
	<g>
		<path class="st1" d="M73.3,55.9c0,1.8-0.8,3.3-1.8,3.3s-1.8-1.5-1.8-3.3s0.8-3.3,1.8-3.3C72.5,52.6,73.3,54.1,73.3,55.9z"/>
	</g>
	<g>
		<path class="st1" d="M18.4,52.2c0,0,5.9-3.8,10.8,3h3.9c0,0-0.2-7.9,1.7-12.2s9.3-4.2,10.4-9.3c0,0,17.4,6.9,29.9,2.3
			c12.5-4.7-25-25.5-43-15.4C13.9,30.8,15.6,38.7,18.4,52.2z"/>
	</g>
	<g>
		<path class="st1" d="M44.8,51.3c0,0,1.8-3.6,5.2-4.5c3.1-0.8,5.4,0,6.5,0.6c0.5,0.3,0.7,0.9,0.5,1.4l0,0c-0.2,0.6-0.9,0.9-1.5,0.6
			C53.5,48.5,49.3,47.3,44.8,51.3z"/>
	</g>
	<g>
		<path class="st1" d="M76.4,48c0,0.5,0,1,0,1.4c-3.4-1.7-6.4-0.8-7.9-0.1c-0.2,0.1-0.3,0.1-0.5,0.1c-0.5,0-0.9-0.3-1.1-0.7
			c-0.2-0.5,0-1.1,0.5-1.4c1.1-0.6,3.4-1.4,6.5-0.6C74.9,47,75.7,47.5,76.4,48z"/>
	</g>
	<g>
		<path class="st1" d="M22.8,81.2c-1.9-1.2-3.1-2.5-3.3-3.9c-0.6-3.2-0.9-7.5-1-12.1l9.7,6.7C28.2,71.9,28.3,78.8,22.8,81.2z"/>
	</g>
	<g>
		<g>
			<path class="st2" d="M29.2,55.2c0,0-5.9-7.2-10.8-3c-5.4,4.6-1.3,20,9.8,19.7L29.2,55.2z"/>
		</g>
		<g>
			<path class="st3" d="M28.5,68.5c-0.5,0-0.9-0.4-1-0.9c-0.9-7.8-5.5-9-5.7-9.1c-0.5-0.1-0.8-0.6-0.7-1.2c0.1-0.5,0.6-0.8,1.2-0.7
				c0.3,0.1,6.2,1.5,7.2,10.8c0.1,0.5-0.3,1-0.9,1.1C28.5,68.5,28.5,68.5,28.5,68.5z"/>
		</g>
		<g>
			<path class="st3" d="M22.3,63.6c-0.2,0-0.5-0.1-0.7-0.2c-0.4-0.4-0.4-1-0.1-1.4c0.1-0.1,2-2.2,5.2-1.5c0.5,0.1,0.9,0.6,0.7,1.2
				c-0.1,0.5-0.6,0.9-1.2,0.7c-2.1-0.5-3.3,0.8-3.3,0.9C22.8,63.5,22.5,63.6,22.3,63.6z"/>
		</g>
	</g>
	<g>
		<path class="st3" d="M63.7,75.6c-3.9,0-9.3-1-13.5-5.9c-0.4-0.4-0.3-1,0.1-1.4c0.4-0.4,1-0.3,1.4,0.1c6.4,7.3,16.4,4.7,16.5,4.7
			c0.5-0.1,1.1,0.2,1.2,0.7s-0.2,1.1-0.7,1.2C68.4,75,66.4,75.6,63.7,75.6z"/>
	</g>
	<g>
		<path class="st3" d="M59.5,80.3c-5,0-7.5-3.2-7.6-3.4c-0.3-0.4-0.2-1,0.2-1.4c0.4-0.3,1-0.2,1.4,0.2c0.1,0.1,2.6,3.3,7.8,2.5
			c0.5-0.1,1,0.3,1.1,0.8s-0.3,1-0.8,1.1C60.8,80.2,60.2,80.3,59.5,80.3z"/>
	</g>
	<g>
		<path class="st3" d="M63.4,66.7c-0.3,0-0.6-0.1-0.8-0.4c-0.3-0.4-0.2-1,0.2-1.4l2.6-2l-2.2-0.6c-0.4-0.1-0.7-0.4-0.7-0.8l-1-6.2
			c-0.1-0.5,0.3-1,0.8-1.1s1,0.3,1.1,0.8l0.9,5.6l3.6,0.9c0.4,0.1,0.6,0.4,0.7,0.7c0.1,0.4-0.1,0.7-0.4,1L64,66.5
			C63.8,66.6,63.6,66.7,63.4,66.7z"/>
	</g>
</g>
</svg>
