<?xml version="1.0" encoding="utf-8"?>
<!-- Generator: Adobe Illustrator 22.0.1, SVG Export Plug-In . SVG Version: 6.00 Build 0)  -->
<svg version="1.1" id="Capa_1" xmlns="http://www.w3.org/2000/svg" xmlns:xlink="http://www.w3.org/1999/xlink" x="0px" y="0px"
	 viewBox="0 0 100 100" style="enable-background:new 0 0 100 100;" xml:space="preserve">
<style type="text/css">
	.st0{fill:none;stroke:#404040;stroke-width:0.2835;stroke-miterlimit:10;stroke-dasharray:2.8346;}
	.st1{fill:#F4A07A;}
	.st2{fill:#F08668;}
	.st3{fill:#F5AC83;}
	.st4{fill:#32314B;}
</style>
<rect x="3" y="3" class="st0" width="94" height="94"/>
<g>
	<g>
		<g>
			<g>
				<path class="st1" d="M27.9,56c0,0-5.8-5.6-10.4-2c-5.4,4.4,0.3,20,9.9,18.4L27.9,56z"/>
			</g>
		</g>
		<g>
			<g>
				<g>
					<path class="st2" d="M24.6,68.5c-0.5,0-0.9-0.4-0.9-0.9c-0.6-7.7-5.1-9.1-5.3-9.1c-0.5-0.1-0.8-0.7-0.7-1.2
						c0.1-0.5,0.6-0.8,1.2-0.7c0.2,0.1,6,1.7,6.7,10.8c0,0.5-0.4,1-0.9,1C24.6,68.5,24.6,68.5,24.6,68.5z"/>
				</g>
			</g>
			<g>
				<g>
					<path class="st2" d="M19.2,64.6c-0.2,0-0.4-0.1-0.6-0.3c-0.4-0.4-0.4-1,0-1.4c0.1-0.1,2-2.1,5.2-1.3c0.5,0.1,0.8,0.7,0.7,1.2
						c-0.1,0.5-0.7,0.8-1.2,0.7c-2-0.5-3.3,0.8-3.3,0.8C19.7,64.5,19.4,64.6,19.2,64.6z"/>
				</g>
			</g>
		</g>
	</g>
	<g>
		<g>
			<g>
				<path class="st1" d="M72.1,56c0,0,5.8-5.6,10.4-2c5.4,4.4-0.3,20-9.9,18.4L72.1,56z"/>
			</g>
		</g>
		<g>
			<g>
				<g>
					<path class="st2" d="M75.4,68.5c0.5,0,0.9-0.4,0.9-0.9c0.6-7.7,5.1-9.1,5.3-9.1c0.5-0.1,0.8-0.7,0.7-1.2
						c-0.1-0.5-0.6-0.8-1.2-0.7c-0.2,0.1-6,1.7-6.7,10.8C74.4,67.9,74.8,68.4,75.4,68.5C75.4,68.5,75.4,68.5,75.4,68.5z"/>
				</g>
			</g>
			<g>
				<g>
					<path class="st2" d="M80.8,64.6c0.2,0,0.4-0.1,0.6-0.3c0.4-0.4,0.4-1,0-1.4c-0.1-0.1-2-2.1-5.2-1.3c-0.5,0.1-0.8,0.7-0.7,1.2
						c0.1,0.5,0.7,0.8,1.2,0.7c2-0.5,3.3,0.8,3.3,0.8C80.3,64.5,80.6,64.6,80.8,64.6z"/>
				</g>
			</g>
		</g>
	</g>
	<path class="st3" d="M50.3,93.1c-20,0-26.1-23.7-28-41.1C20.6,36,33,21.9,49.1,21.7c0.2,0,0.4,0,0.6,0c0.3,0,0.5,0,0.8,0
		c16,0.3,28.4,14,27,29.9C76,69.1,70.2,93.1,50.3,93.1z"/>
	<path class="st4" d="M75.6,9c10.1,6.9,1,20.4,1,20.4s10.1,9.9-0.3,33.1l-1.8-0.4c1.2-7.4,0.5-16.5,0-17.9c-1.5-4.2-8.9-6.4-8.5-11
		c0,0-22.8,7.1-35.2,0.1c0,0-1,5.9-4.4,9.6c-2.8,3.1-1.2,13.9-0.9,18.6l-1.9,0.2c-1.1-4.8-3.9-13.3-4.2-15.9
		c-0.2-1.6-0.9-7.9-1.2-12.4c-0.3-4,0.5-7.9,2.2-11.5c1-2,2.4-3.9,4.3-5.3C31.5,11.6,66.4,2.8,75.6,9z"/>
	<g>
		<g>
			<path class="st4" d="M41,56c0,2-0.9,3.6-2,3.6S37,58,37,56s0.9-3.6,2-3.6S41,54,41,56z"/>
		</g>
	</g>
	<g>
		<g>
			<path class="st4" d="M30.9,48.3c0,0,1.9-3.9,5.6-4.9c3.4-0.9,5.8,0,7,0.6c0.5,0.3,0.8,0.9,0.5,1.5l0,0c-0.2,0.7-1,1-1.7,0.7
				C40.3,45.2,35.8,44,30.9,48.3z"/>
		</g>
	</g>
	<g>
		<g>
			<path class="st4" d="M60.4,56c0,2,0.9,3.6,2,3.6s2-1.6,2-3.6s-0.9-3.6-2-3.6C61.3,52.4,60.4,54,60.4,56z"/>
		</g>
	</g>
	<g>
		<g>
			<path class="st4" d="M70.5,48.3c0,0-1.9-3.9-5.6-4.9c-3.4-0.9-5.8,0-7,0.6c-0.5,0.3-0.8,0.9-0.5,1.5l0,0c0.2,0.7,1,1,1.7,0.7
				C61.1,45.2,65.6,44,70.5,48.3z"/>
		</g>
	</g>
	<g>
		<g>
			<path class="st2" d="M50.3,68.2c-0.3,0-0.6-0.2-0.8-0.5c-0.3-0.5-0.2-1.1,0.3-1.4l3-1.9l-2.4-0.9c-0.4-0.1-0.7-0.5-0.7-0.9
				l-0.4-6.8c0-0.6,0.4-1.1,1-1.1s1.1,0.4,1.1,1l0.4,6.1l3.7,1.4c0.4,0.1,0.6,0.5,0.7,0.9c0,0.4-0.2,0.8-0.5,1l-4.8,3
				C50.8,68.2,50.6,68.2,50.3,68.2z"/>
		</g>
	</g>
	<g>
		<g>
			<path class="st2" d="M54.8,78.4c-3.9,0.8-9,0.7-14-2.5c-0.5-0.3-0.6-1-0.3-1.4c0.3-0.5,1-0.6,1.4-0.3c8.7,5.7,18.3,0.1,18.4,0.1
				c0.5-0.3,1.1-0.1,1.4,0.4c0.3,0.5,0.1,1.1-0.4,1.4C61.2,76.1,58.6,77.7,54.8,78.4z"/>
		</g>
	</g>
	<g>
		<path class="st2" d="M51.2,83c-1.8,0-3.8-0.3-5.8-1.5c-0.3-0.2-0.5-0.7-0.3-1s0.7-0.5,1-0.3c4.9,2.9,9.7,0.1,9.9,0
			c0.3-0.2,0.8-0.1,1,0.3c0.2,0.3,0.1,0.8-0.2,1C56.6,81.6,54.3,82.9,51.2,83z"/>
	</g>
</g>
</svg>
