<?xml version="1.0" encoding="utf-8"?>
<!-- Generator: Adobe Illustrator 22.0.1, SVG Export Plug-In . SVG Version: 6.00 Build 0)  -->
<svg version="1.1" id="Capa_1" focusable="false" xmlns="http://www.w3.org/2000/svg" xmlns:xlink="http://www.w3.org/1999/xlink"
	 x="0px" y="0px" viewBox="0 0 512 512" style="enable-background:new 0 0 512 512;" xml:space="preserve">
<style type="text/css">
	.st0{fill:#1D8FBC;}
	.st1{fill:#FF2400;}
</style>
<path class="st0" d="M512,144v288c0,26.5-21.5,48-48,48H48c-26.5,0-48-21.5-48-48V144c0-26.5,21.5-48,48-48h88l12.3-32.9
	c7-18.7,24.9-31.1,44.9-31.1h125.5c20,0,37.9,12.4,44.9,31.1L376,96h88C490.5,96,512,117.5,512,144z M376,288
	c0-66.2-53.8-120-120-120s-120,53.8-120,120s53.8,120,120,120S376,354.2,376,288z M344,288c0,48.5-39.5,88-88,88s-88-39.5-88-88
	s39.5-88,88-88S344,239.5,344,288z"/>
<g>
	<path class="st1" d="M373.8,504.9l-63.5-110.1c-25.9-42.1-42.1-69.4-57.6-98.2h-1.5c-14,28.8-28.1,55.4-53.9,99l-59.8,109.3H63.6
		L215.7,253L69.5,7.1h74.6l65.7,116.7c18.5,32.5,32.5,57.6,45.8,84.2h2.2c14-29.5,26.6-52.4,45.1-84.2l68-116.7h73.9L293.3,249.4
		L448.4,505h-74.6V504.9z"/>
</g>
</svg>
