<?xml version="1.0" encoding="utf-8"?>
<!-- Generator: Adobe Illustrator 22.0.1, SVG Export Plug-In . SVG Version: 6.00 Build 0)  -->
<svg version="1.1" id="Capa_1" xmlns="http://www.w3.org/2000/svg" xmlns:xlink="http://www.w3.org/1999/xlink" x="0px" y="0px"
	 viewBox="0 0 512 512" style="enable-background:new 0 0 512 512;" xml:space="preserve">
<style type="text/css">
	.st0{fill:#303C42;}
	.st1{fill:#E6E6E6;}
	.st2{fill:#1E88E5;}
	.st3{fill:url(#SVGID_1_);}
	.st4{opacity:0.1;enable-background:new    ;}
	.st5{fill:url(#SVGID_2_);}
	.st6{fill:#FF2400;}
</style>
<path class="st0" d="M256,0C114.8,0,0,114.8,0,256s114.8,256,256,256s256-114.8,256-256S397.2,0,256,0z"/>
<path class="st1" d="M256,21.3c129.4,0,234.7,105.3,234.7,234.7c0,51.5-16.9,99-45.1,137.8c-2.5-1.6-4.9-3.1-7.4-4.3
	c-42.8-21.9-109.1-48.1-182.2-48.1s-139.4,26.2-182.2,48.1c-2.5,1.3-4.9,2.7-7.4,4.3C38.2,355,21.3,307.5,21.3,256
	C21.3,126.6,126.6,21.3,256,21.3z"/>
<path class="st2" d="M256,490.7c-70.2,0-133.1-31.1-176.1-80.1c1.2-0.7,2.5-1.6,3.7-2.2c40.7-20.9,103.6-45.8,172.4-45.8
	s131.8,24.9,172.4,45.7c1.2,0.6,2.5,1.4,3.7,2.2C389.1,459.6,326.2,490.7,256,490.7z"/>
<circle class="st0" cx="256" cy="192" r="128"/>
<linearGradient id="SVGID_1_" gradientUnits="userSpaceOnUse" x1="67.492" y1="-230.0558" x2="72.977" y2="-224.5698" gradientTransform="matrix(21.3333 0 0 21.3333 -1158.9963 5236.3472)">
	<stop  offset="0" style="stop-color:#000000;stop-opacity:0.1"/>
	<stop  offset="1" style="stop-color:#000000;stop-opacity:0"/>
</linearGradient>
<path class="st3" d="M352.7,469.6c30.5-13.9,57.5-34.1,79.4-59c-1.2-0.7-2.5-1.6-3.7-2.2c-40.6-20.9-103.6-45.7-172.4-45.7
	c-3.3,0-6.5,0.3-9.8,0.4L352.7,469.6z"/>
<circle class="st2" cx="256" cy="192" r="106.7"/>
<path class="st4" d="M313.2,102.3c4.2,11.4,6.8,23.6,6.8,36.4c0,58.8-47.9,106.7-106.7,106.7c-21.1,0-40.6-6.3-57.2-16.9
	c15,40.9,53.9,70.3,99.9,70.3c58.8,0,106.7-47.9,106.7-106.7C362.7,154.3,342.8,121.2,313.2,102.3z"/>
<linearGradient id="SVGID_2_" gradientUnits="userSpaceOnUse" x1="55.4527" y1="-238.5248" x2="77.2034" y2="-228.3835" gradientTransform="matrix(21.3333 0 0 21.3333 -1158.9963 5236.3472)">
	<stop  offset="0" style="stop-color:#FFFFFF;stop-opacity:0.2"/>
	<stop  offset="1" style="stop-color:#FFFFFF;stop-opacity:0"/>
</linearGradient>
<path class="st5" d="M256,0C114.8,0,0,114.8,0,256s114.8,256,256,256s256-114.8,256-256S397.2,0,256,0z"/>
<g>
	<path class="st6" d="M373.8,504.9l-63.5-110.1c-25.9-42.1-42.1-69.4-57.6-98.2h-1.5c-14,28.8-28.1,55.4-53.9,99l-59.8,109.3H63.6
		l152.1-251.9L69.5,7.1h74.6l65.7,116.7c18.5,32.5,32.5,57.6,45.8,84.2h2.2c14-29.5,26.6-52.4,45.1-84.2l68-116.7h73.9L293.3,249.3
		L448.4,505h-74.6V504.9z"/>
</g>
</svg>
